# xmcd
#
# Track frame offsets:
#	150
#	23073
#	38326
#	52526
#	71172
#	82694
#	104548
#	118931
#	127221
#	138516
#	154635
#	169301
#	183157
#	196973
#	208259
#	219962
#	233431
#	251125
#	261334
#	277422
#	291169
#
# Disc length: 4080 seconds
#
# Revision: 1
# Processed by: cddbd v1.5.2PL0 Copyright (c) Steve Scherf et al.
# Submitted via: audiograbber 1.83.01
#
DISCID=360fee15
DTITLE=Diverse - Ballermann Country
DYEAR=2017
DGENRE=Country
TTITLE0=Good Time - Alan Jackson
TTITLE1=Mit ´ner Herde wilder Pferde - Truck Stop
TTITLE2=Hey Boss ich brauch mehr Geld - Gunther Gabriel
TTITLE3=Sunday morning coming down - Carl Emroy
TTITLE4=Wenn die Cowboys träumen - Marika Kilius
TTITLE5=Alcohol - Brad Paisley
TTITLE6=Bodyguard - Gaby Baginsky
TTITLE7=Bonanza - Lorne Green
TTITLE8=Auf meiner Ranch bin ich König - Peter Hinnen
TTITLE9=Der liebe Gott muss´n Cowboy sein - Western Union
TTITLE10=Play something Country - Brooks and Dunn
TTITLE11=So stell ich mir den Himmel vor - Truck Stop
TTITLE12=Guitars Cadillacs - Andy Martin
TTITLE13=Hundert Mann und ein Befehl - Freddy Quinn
TTITLE14=14 Tage auf dem Brenner - Tom Astor
TTITLE15=Another Saturday night - Mark Bender
TTITLE16=I bin a beyrisches Cowgirl - Nicki
TTITLE17=Der Sheriff von Arkansas ist ne Lady - Catarine Valente
TTITLE18=She´s getting back (Back to her roots) - Mark Bender
TTITLE19=Taxi nach Texas - Peter Laine
TTITLE20=Western Polonaise - Hoppe Reiter
EXTD=
EXTT0=
EXTT1=
EXTT2=
EXTT3=
EXTT4=
EXTT5=
EXTT6=
EXTT7=
EXTT8=
EXTT9=
EXTT10=
EXTT11=
EXTT12=
EXTT13=
EXTT14=
EXTT15=
EXTT16=
EXTT17=
EXTT18=
EXTT19=
EXTT20=
PLAYORDER=
